<svg viewBox="0 0 1072 117" fill="none" xmlns="http://www.w3.org/2000/svg">
<g filter="url(#filter0_d_3_4)">
<path d="M728.127 1.80852C729.898 1.00664 731.906 0.612 734.141 0.612C737.361 0.612 740.038 1.41805 742.129 3.07023C744.255 4.72417 745.457 6.92997 745.727 9.65486L745.781 10.204H739.988L739.933 9.76602C739.792 8.63701 739.201 7.62685 738.098 6.73238L738.092 6.72726C737.02 5.82883 735.575 5.356 733.709 5.356C731.976 5.356 730.609 5.81024 729.565 6.68011L729.559 6.68538C728.543 7.50385 728.017 8.66236 728.017 10.232C728.017 11.3486 728.322 12.2145 728.897 12.874C729.548 13.5828 730.332 14.1312 731.254 14.5193C732.257 14.8951 733.662 15.3374 735.475 15.8462L728.127 1.80852ZM728.127 1.80852L728.123 1.81002C726.382 2.61356 725.011 3.76029 724.028 5.25284C723.041 6.74921 722.553 8.46252 722.553 10.376C722.553 12.5275 723.033 14.3071 724.044 15.6664L724.048 15.6722L724.053 15.6778C725.059 16.9527 726.259 17.9023 727.652 18.5138L727.656 18.5156C729.031 19.105 730.833 19.6882 733.052 20.2672M728.127 1.80852L733.052 20.2672M733.052 20.2672C733.053 20.2672 733.052 20.2671 733.052 20.2672ZM733.052 20.2672L733.181 19.784L733.055 20.2678C733.054 20.2676 733.053 20.2674 733.052 20.2672ZM784.33 1.80852C786.101 1.00664 788.109 0.612 790.344 0.612C793.564 0.612 796.241 1.41805 798.332 3.07023C800.458 4.72417 801.661 6.92997 801.93 9.65486L801.984 10.204H796.191L796.136 9.76602C795.995 8.63701 795.404 7.62685 794.301 6.73238L794.295 6.72726C793.223 5.82883 791.778 5.356 789.912 5.356C788.179 5.356 786.812 5.81024 785.768 6.68011L785.762 6.68538C784.746 7.50385 784.22 8.66236 784.22 10.232C784.22 11.3486 784.525 12.2145 785.1 12.874C785.751 13.5828 786.535 14.1312 787.457 14.5193C788.461 14.8951 789.865 15.3374 791.678 15.8462L784.33 1.80852ZM784.33 1.80852L784.327 1.81002C782.586 2.61356 781.214 3.76029 780.231 5.25284C779.244 6.74921 778.756 8.46252 778.756 10.376C778.756 12.5275 779.236 14.3071 780.247 15.6664L780.251 15.6722L780.256 15.6778C781.262 16.9527 782.462 17.9023 783.855 18.5138L783.859 18.5156C785.235 19.105 787.036 19.6882 789.255 20.2672M784.33 1.80852L789.255 20.2672M789.255 20.2672C789.256 20.2672 789.255 20.2671 789.255 20.2672ZM789.255 20.2672L789.384 19.784L789.258 20.2678C789.257 20.2676 789.256 20.2674 789.255 20.2672ZM904.424 1.80852C906.194 1.00664 908.203 0.612 910.438 0.612C913.658 0.612 916.335 1.41805 918.426 3.07023C920.552 4.72417 921.754 6.92997 922.023 9.65486L922.078 10.204H916.284L916.23 9.76602C916.089 8.63701 915.498 7.62685 914.395 6.73238L914.389 6.72726C913.316 5.82883 911.872 5.356 910.006 5.356C908.273 5.356 906.906 5.81024 905.862 6.68011L905.856 6.68538C904.839 7.50385 904.314 8.66236 904.314 10.232C904.314 11.3486 904.619 12.2145 905.194 12.874C905.845 13.5828 906.628 14.1312 907.551 14.5193C908.554 14.8951 909.959 15.3374 911.771 15.8462L904.424 1.80852ZM904.424 1.80852L904.42 1.81002C902.679 2.61356 901.308 3.76029 900.324 5.25284C899.338 6.74921 898.85 8.46252 898.85 10.376C898.85 12.5275 899.33 14.3071 900.341 15.6664L900.345 15.6722L900.349 15.6778C901.356 16.9527 902.556 17.9023 903.949 18.5138L903.953 18.5156C905.328 19.105 907.13 19.6882 909.349 20.2672M904.424 1.80852L909.349 20.2672M909.349 20.2672C909.349 20.2672 909.349 20.2671 909.349 20.2672ZM909.349 20.2672L909.478 19.784L909.352 20.2678C909.351 20.2676 909.35 20.2674 909.349 20.2672ZM209.139 6.2938C207.196 7.39953 205.66 9.00656 204.531 11.0985L204.53 11.1011C203.43 13.1686 202.887 15.5558 202.887 18.248C202.887 20.9402 203.43 23.3274 204.53 25.3949L204.533 25.4004C205.662 27.4594 207.196 29.0632 209.135 30.1994L209.143 30.2044C211.112 31.3054 213.309 31.852 215.723 31.852C219.095 31.852 221.91 30.8402 224.127 28.7912C226.342 26.7437 227.618 23.9842 227.981 20.5566L228.039 20.004H214.639V17.452H231.639V20.2887C231.388 22.9522 230.551 25.3952 229.128 27.6241C227.701 29.8261 225.826 31.5778 223.497 32.8826C221.177 34.1505 218.589 34.788 215.723 34.788C212.701 34.788 209.955 34.0881 207.475 32.6934C204.994 31.2663 203.025 29.2991 201.565 26.7837C200.141 24.2743 199.423 21.4333 199.423 18.248C199.423 15.0621 200.141 12.2206 201.566 9.71091C203.027 7.16357 204.994 5.19789 207.472 3.80379L207.477 3.80145C209.957 2.37531 212.702 1.66 215.723 1.66C219.189 1.66 222.228 2.51715 224.86 4.21978L224.862 4.22122C227.322 5.79465 229.162 7.96251 230.383 10.74M209.139 6.2938C209.139 6.29393 209.14 6.29368 209.139 6.2938ZM209.139 6.2938L209.387 6.728L209.138 6.29478C209.138 6.29446 209.139 6.29413 209.139 6.2938ZM209.139 6.2938C211.108 5.15956 213.307 4.596 215.723 4.596C218.139 4.596 220.279 5.15919 222.127 6.3009M222.127 6.3009C222.126 6.30035 222.126 6.2998 222.125 6.29925L221.867 6.728L222.13 6.3027C222.129 6.3021 222.128 6.3015 222.127 6.3009ZM222.127 6.3009C223.888 7.35784 225.249 8.84214 226.211 10.74M226.211 10.74H225.899V11.24L226.351 11.0253C226.305 10.9292 226.259 10.8341 226.211 10.74ZM226.211 10.74H230.383M230.383 10.74C230.481 10.9633 230.575 11.1905 230.666 11.4217L231.131 11.24V10.74H230.383ZM467.558 2.93377C470.197 1.41643 473.115 0.659999 476.301 0.659999C479.519 0.659999 482.453 1.41597 485.093 2.93377C487.733 4.41892 489.813 6.50023 491.328 9.16909C492.847 11.8441 493.601 14.8748 493.601 18.248C493.601 21.6212 492.847 24.6519 491.328 27.3269C489.813 29.9958 487.733 32.0925 485.095 33.6095L485.091 33.6118C482.451 35.0967 479.517 35.836 476.301 35.836C473.117 35.836 470.199 35.0963 467.56 33.6118L467.556 33.6095C464.919 32.0931 462.824 29.9976 461.277 27.3309L461.273 27.3246C459.756 24.6196 459.001 21.5902 459.001 18.248C459.001 14.9059 459.756 11.8914 461.275 9.21709L461.276 9.21536C462.823 6.51648 464.918 4.41926 467.558 2.93377ZM467.558 2.93377C467.559 2.93325 467.559 2.93273 467.56 2.93221L467.805 3.368L467.556 2.93455C467.557 2.93429 467.557 2.93403 467.558 2.93377ZM770.783 73.8085C772.554 73.0066 774.562 72.612 776.797 72.612C780.017 72.612 782.694 73.4181 784.786 75.0704C786.912 76.7244 788.114 78.93 788.383 81.6549L788.437 82.204H782.644L782.589 81.766C782.448 80.637 781.857 79.6269 780.754 78.7324L780.748 78.7273C779.676 77.8288 778.232 77.356 776.365 77.356C774.632 77.356 773.265 77.8102 772.221 78.6801L772.215 78.6854C771.199 79.5038 770.673 80.6624 770.673 82.232C770.673 83.3486 770.979 84.2146 771.553 84.874C772.204 85.5829 772.988 86.1313 773.91 86.5193C774.914 86.8952 776.319 87.3374 778.131 87.8462L770.783 73.8085ZM770.783 73.8085L770.78 73.81C769.039 74.6136 767.667 75.7603 766.684 77.2528C765.698 78.7492 765.209 80.4625 765.209 82.376C765.209 84.5275 765.689 86.3072 766.7 87.6664L766.704 87.6722L766.709 87.6778C767.715 88.9527 768.915 89.9023 770.308 90.5138L770.312 90.5156C771.688 91.1051 773.49 91.6883 775.709 92.2674L770.783 73.8085ZM621.358 106.393C623.368 105.421 624.96 103.944 626.128 101.975L626.13 101.972C627.305 99.9584 627.878 97.5144 627.878 94.664V73.044H622.51V94.712C622.51 97.6137 621.792 99.6678 620.452 100.979L620.449 100.982C619.125 102.306 617.265 102.996 614.802 102.996C612.307 102.996 610.414 102.306 609.058 100.981C607.749 99.67 607.046 97.6151 607.046 94.712V73.044H601.678V94.664C601.678 97.5122 602.235 99.9541 603.375 101.967L603.38 101.975C604.547 103.943 606.122 105.42 608.102 106.393L608.104 106.394C610.1 107.358 612.319 107.836 614.754 107.836C617.189 107.836 619.394 107.359 621.358 106.393ZM621.358 106.393C621.357 106.393 621.357 106.394 621.356 106.394L621.138 105.944L621.358 106.393ZM621.358 106.393C621.358 106.393 621.358 106.393 621.358 106.393ZM286.388 102.344C288.36 101.207 289.896 99.5853 290.994 97.4912C292.126 95.3919 292.684 92.9726 292.684 90.248C292.684 87.4931 292.127 85.0725 290.993 83.0028C289.896 80.9114 288.377 79.2898 286.437 78.1526C284.497 77.0153 282.296 76.452 279.848 76.452C277.401 76.452 275.2 77.0153 273.259 78.1526C271.319 79.29 269.785 80.9114 268.656 83.0025L268.655 83.0051C267.554 85.0743 267.012 87.494 267.012 90.248C267.012 92.9713 267.554 95.3893 268.653 97.488L268.656 97.4935C269.785 99.5846 271.319 101.206 273.259 102.343L273.263 102.345C275.232 103.48 277.431 104.044 279.848 104.044C282.265 104.044 284.449 103.48 286.388 102.344ZM286.388 102.344C286.387 102.345 286.387 102.345 286.386 102.345L286.136 101.912L286.389 102.343C286.389 102.344 286.388 102.344 286.388 102.344ZM99.1501 2.71879C100.771 1.98513 102.634 1.612 104.75 1.612C107.802 1.612 110.244 2.37346 112.12 3.85628L112.123 3.85868C113.885 5.22856 114.931 7.0017 115.272 9.204H111.461C111.194 7.95968 110.472 6.87698 109.34 5.95817C108.045 4.87435 106.354 4.356 104.318 4.356C102.405 4.356 100.797 4.86088 99.5375 5.90917C98.2517 6.94655 97.6264 8.41114 97.6264 10.232C97.6264 11.5447 97.9915 12.6614 98.758 13.5373L98.7658 13.5459C99.5202 14.3689 100.429 15.0021 101.485 15.4451L101.494 15.4488L101.503 15.4522C102.546 15.8435 103.986 16.2959 105.815 16.8094L105.818 16.8101C108.013 17.4145 109.761 18.0145 111.072 18.6076L111.081 18.6116C112.341 19.1513 113.426 20.0073 114.338 21.1929L114.342 21.1978C115.211 22.2983 115.674 23.8399 115.674 25.88C115.674 27.4187 115.268 28.8661 114.45 30.2308C113.639 31.5818 112.432 32.6904 110.805 33.5499C109.194 34.4009 107.277 34.836 105.038 34.836C102.891 34.836 100.978 34.4631 99.2914 33.7279C97.6351 32.9603 96.3485 31.9257 95.4138 30.6302C94.5761 29.4405 94.101 28.0918 93.9927 26.572H97.6881C97.9297 28.0634 98.6014 29.3494 99.698 30.4146L99.7032 30.4197L99.7085 30.4246C100.984 31.5934 102.787 32.14 105.038 32.14C107.198 32.14 108.96 31.6075 110.261 30.4822L110.262 30.4815C111.589 29.3291 112.258 27.8466 112.258 26.072C112.258 24.6961 111.878 23.5306 111.078 22.6217C110.318 21.7583 109.371 21.1059 108.246 20.6628C107.165 20.2369 105.72 19.7833 103.92 19.301L103.917 19.3002C101.722 18.7277 99.9733 18.1594 98.6615 17.5974C97.4333 17.0578 96.3633 16.2174 95.4513 15.0639C94.6088 13.9276 94.1624 12.3811 94.1624 10.376C94.1624 8.64147 94.6021 7.12278 95.4718 5.80316C96.3438 4.48019 97.564 3.45119 99.1501 2.71879ZM104.75 0.612C102.515 0.612 100.507 1.00664 98.7361 1.80852L98.7328 1.81002C96.9918 2.61356 95.6206 3.76029 94.6369 5.25284C93.6506 6.74922 93.1624 8.46253 93.1624 10.376C93.1624 12.5275 93.6424 14.3071 94.6531 15.6664L94.6574 15.6722L94.6619 15.6778C95.6684 16.9527 96.8684 17.9023 98.2614 18.5138L98.2654 18.5156C99.641 19.1051 101.443 19.6883 103.662 20.2673C105.445 20.7449 106.848 21.1872 107.879 21.5932C108.866 21.9821 109.679 22.5457 110.327 23.2823C110.935 23.9734 111.258 24.8879 111.258 26.072C111.258 27.561 110.712 28.7663 109.607 29.7258C108.54 30.6485 107.038 31.14 105.038 31.14C102.942 31.14 101.418 30.6324 100.39 29.6923C99.358 28.688 98.7717 27.4711 98.6238 26.0212L98.5779 25.572H92.9615L92.9704 26.0808C93.0041 27.9986 93.5445 29.7132 94.5976 31.208L94.6008 31.2124C95.6489 32.6663 97.08 33.8063 98.8762 34.6378L98.8864 34.6423C100.718 35.4416 102.772 35.836 105.038 35.836C107.408 35.836 109.491 35.3751 111.272 34.4341C113.037 33.5016 114.39 32.2742 115.307 30.7452C116.216 29.2299 116.674 27.6053 116.674 25.88C116.674 23.6974 116.179 21.9118 115.129 20.5805C114.122 19.2729 112.906 18.3064 111.48 17.6944C110.104 17.0724 108.302 16.4571 106.084 15.8463C104.272 15.3375 102.867 14.8951 101.863 14.5192C100.941 14.1312 100.158 13.5831 99.507 12.8745C98.9318 12.215 98.6264 11.3489 98.6264 10.232C98.6264 8.66235 99.152 7.5039 100.168 6.68543L100.174 6.68011C101.218 5.81024 102.585 5.356 104.318 5.356C106.185 5.356 107.629 5.82888 108.701 6.72731L108.707 6.73238C109.811 7.62686 110.401 8.63701 110.542 9.76602L110.597 10.204H116.39L116.336 9.65486C116.067 6.93019 114.865 4.72452 112.739 3.07062C110.647 1.41818 107.97 0.612 104.75 0.612ZM296.775 2.71896C298.396 1.98519 300.259 1.612 302.375 1.612C305.427 1.612 307.869 2.37346 309.745 3.85628L309.748 3.85868C311.51 5.22856 312.556 7.0017 312.896 9.204H309.086C308.819 7.9595 308.097 6.87665 306.965 5.95776C305.67 4.87422 303.979 4.356 301.943 4.356C300.03 4.356 298.422 4.86101 297.162 5.90957C295.877 6.94693 295.251 8.41138 295.251 10.232C295.251 11.5447 295.617 12.6613 296.383 13.5373L296.391 13.5459C297.145 14.3689 298.054 15.0021 299.11 15.4451L299.119 15.4488L299.128 15.4522C300.171 15.8435 301.611 16.2959 303.44 16.8094L303.443 16.8101C305.638 17.4145 307.386 18.0144 308.697 18.6076L308.706 18.6116C309.966 19.1513 311.051 20.0073 311.963 21.1929L311.967 21.1978C312.836 22.2983 313.299 23.8399 313.299 25.88C313.299 27.4187 312.893 28.8661 312.075 30.2308C311.264 31.5818 310.057 32.6904 308.43 33.5499C306.819 34.4009 304.902 34.836 302.663 34.836C300.516 34.836 298.603 34.4631 296.916 33.7278C295.26 32.9603 293.974 31.926 293.039 30.6309C292.201 29.4411 291.726 28.0921 291.618 26.572H295.313C295.555 28.0634 296.226 29.3494 297.323 30.4146L297.328 30.4197L297.333 30.4246C298.609 31.5934 300.412 32.14 302.663 32.14C304.823 32.14 306.585 31.6075 307.886 30.4822L307.887 30.4815C309.214 29.3291 309.883 27.8466 309.883 26.072C309.883 24.6961 309.503 23.5306 308.703 22.6217C307.943 21.7583 306.996 21.1059 305.871 20.6628C304.79 20.2369 303.345 19.7833 301.545 19.301L301.542 19.3002C299.347 18.7277 297.598 18.1593 296.286 17.5972C295.058 17.0576 293.988 16.2173 293.076 15.0639C292.234 13.9276 291.787 12.3811 291.787 10.376C291.787 8.64147 292.227 7.12278 293.097 5.80316C293.969 4.4803 295.189 3.45136 296.775 2.71896ZM302.375 0.612C300.14 0.612 298.132 1.00664 296.361 1.80852L301.288 20.2675C303.071 20.745 304.474 21.1872 305.504 21.5932C306.491 21.9821 307.304 22.5457 307.952 23.2823C308.56 23.9734 308.883 24.8879 308.883 26.072C308.883 27.561 308.337 28.7663 307.232 29.7258C306.165 30.6485 304.663 31.14 302.663 31.14C300.567 31.14 299.043 30.6323 298.014 29.6922C296.983 28.6879 296.397 27.471 296.249 26.0212L296.203 25.572H290.587L290.595 26.0808C290.629 27.9986 291.169 29.7132 292.223 31.208L292.226 31.2124C293.274 32.6663 294.705 33.8062 296.501 34.6377L296.511 34.6423C298.343 35.4416 300.397 35.836 302.663 35.836C305.033 35.836 307.116 35.3751 308.897 34.4341C310.662 33.5016 312.015 32.2742 312.932 30.7452C313.841 29.2299 314.299 27.6053 314.299 25.88C314.299 23.6967 313.803 21.9107 312.753 20.5793C311.746 19.2723 310.53 18.3062 309.105 17.6944C307.729 17.0723 305.927 16.457 303.709 15.8462C301.896 15.3374 300.492 14.8951 299.488 14.5192C298.566 14.1311 297.782 13.5829 297.132 12.874C296.557 12.2146 296.251 11.3486 296.251 10.232C296.251 8.66235 296.777 7.50384 297.793 6.68538L297.799 6.68011C298.843 5.81024 300.21 5.356 301.943 5.356C303.81 5.356 305.254 5.82883 306.326 6.72726L306.332 6.73238C307.436 7.62685 308.026 8.63701 308.167 9.76602L308.222 10.204H314.015L313.961 9.65486C313.692 6.92997 312.489 4.72417 310.363 3.07023C308.272 1.41805 305.595 0.612 302.375 0.612ZM728.542 2.71826C730.163 1.98495 732.025 1.612 734.141 1.612C737.192 1.612 739.635 2.37346 741.511 3.85628L741.514 3.85868C743.275 5.22857 744.322 7.00171 744.662 9.204H740.851C740.585 7.95987 739.863 6.8773 738.732 5.95858C737.436 4.87449 735.745 4.356 733.709 4.356C731.796 4.356 730.188 4.86076 728.929 5.90876C727.642 6.94617 727.017 8.4109 727.017 10.232C727.017 11.5447 727.382 12.6613 728.149 13.5373L728.156 13.5459C728.911 14.3689 729.819 15.0021 730.876 15.4451L730.884 15.4488L730.893 15.4522C731.937 15.8435 733.377 16.2959 735.206 16.8094L735.208 16.8101C737.403 17.4145 739.152 18.0144 740.463 18.6076L740.472 18.6116C741.731 19.1513 742.817 20.0073 743.729 21.1929L743.733 21.1978C744.601 22.2983 745.065 23.8399 745.065 25.88C745.065 27.4187 744.659 28.8661 743.84 30.2308C743.03 31.5818 741.822 32.6904 740.195 33.5499C738.584 34.4009 736.668 34.836 734.429 34.836C732.282 34.836 730.369 34.4632 728.683 33.7282C727.026 32.9607 725.74 31.9263 724.805 30.6309C723.967 29.4411 723.492 28.0921 723.383 26.572H727.079C727.32 28.0634 727.992 29.3494 729.089 30.4146L729.094 30.4197L729.099 30.4246C730.374 31.5934 732.177 32.14 734.429 32.14C736.589 32.14 738.352 31.6068 739.653 30.4815C740.98 29.3291 741.649 27.8466 741.649 26.072C741.649 24.6961 741.268 23.5306 740.468 22.6217C739.708 21.7583 738.761 21.1059 737.636 20.6628C736.555 20.2369 735.111 19.7833 733.31 19.301L733.307 19.3002C731.113 18.7277 729.364 18.1592 728.052 17.5972C726.824 17.0576 725.754 16.2173 724.842 15.0639C723.999 13.9276 723.553 12.3811 723.553 10.376C723.553 8.64147 723.993 7.12279 724.862 5.80316C725.735 4.47987 726.955 3.4507 728.542 2.71826ZM784.745 2.71826C786.366 1.98495 788.229 1.612 790.344 1.612C793.395 1.612 795.838 2.37346 797.714 3.85628L797.717 3.85868C799.478 5.22857 800.525 7.00171 800.865 9.204H797.054C796.788 7.95987 796.066 6.8773 794.935 5.95858C793.639 4.87449 791.948 4.356 789.912 4.356C787.999 4.356 786.391 4.86076 785.132 5.90876C783.846 6.94617 783.22 8.4109 783.22 10.232C783.22 11.5447 783.585 12.6613 784.352 13.5373L784.359 13.5459C785.114 14.3689 786.022 15.0021 787.079 15.4451L787.088 15.4488L787.097 15.4522C788.14 15.8435 789.58 16.2959 791.409 16.8094L791.411 16.8101C793.606 17.4145 795.355 18.0144 796.666 18.6076L796.675 18.6116C797.935 19.1513 799.02 20.0073 799.932 21.1929L799.936 21.1978C800.805 22.2983 801.268 23.8399 801.268 25.88C801.268 27.4187 800.862 28.8661 800.043 30.2308C799.233 31.5818 798.026 32.6904 796.398 33.5499C794.788 34.4009 792.871 34.836 790.632 34.836C788.485 34.836 786.573 34.4632 784.886 33.7282C783.23 32.9607 781.943 31.9263 781.008 30.6309C780.17 29.4411 779.695 28.0921 779.586 26.572H783.282C783.523 28.0634 784.195 29.3494 785.292 30.4146L785.297 30.4197L785.302 30.4246C786.577 31.5934 788.38 32.14 790.632 32.14C792.792 32.14 794.555 31.6068 795.856 30.4815C797.183 29.3291 797.852 27.8466 797.852 26.072C797.852 24.6961 797.471 23.5306 796.671 22.6217C795.912 21.7583 794.964 21.1059 793.839 20.6628C792.758 20.2369 791.314 19.7833 789.513 19.301L789.51 19.3002C787.316 18.7277 785.567 18.1592 784.255 17.5972C783.027 17.0576 781.957 16.2173 781.045 15.0639C780.203 13.9276 779.756 12.3811 779.756 10.376C779.756 8.64147 780.196 7.12279 781.066 5.80316C781.938 4.47987 783.158 3.4507 784.745 2.71826ZM904.839 2.71826C906.459 1.98495 908.322 1.612 910.438 1.612C913.489 1.612 915.932 2.37346 917.808 3.85628L917.811 3.85868C919.572 5.22857 920.619 7.00171 920.959 9.204H917.148C916.882 7.95987 916.16 6.8773 915.028 5.95858C913.733 4.87449 912.042 4.356 910.006 4.356C908.093 4.356 906.485 4.86076 905.226 5.90876C903.939 6.94617 903.314 8.4109 903.314 10.232C903.314 11.5447 903.679 12.6613 904.446 13.5373L904.453 13.5459C905.208 14.3689 906.116 15.0021 907.172 15.4451L907.181 15.4488L907.19 15.4522C908.234 15.8435 909.673 16.2959 911.503 16.8094L911.505 16.8101C913.7 17.4145 915.449 18.0144 916.76 18.6076L916.769 18.6116C918.028 19.1513 919.114 20.0073 920.026 21.1929L920.029 21.1978C920.898 22.2983 921.362 23.8399 921.362 25.88C921.362 27.4187 920.956 28.8661 920.137 30.2308C919.326 31.5818 918.119 32.6904 916.492 33.5499C914.881 34.4009 912.965 34.836 910.726 34.836C908.579 34.836 906.666 34.4632 904.98 33.7282C903.323 32.9607 902.037 31.9263 901.102 30.6309C900.264 29.4411 899.788 28.0921 899.68 26.572H903.376C903.617 28.0634 904.289 29.3494 905.385 30.4146L905.391 30.4197L905.396 30.4246C906.671 31.5934 908.474 32.14 910.726 32.14C912.886 32.14 914.649 31.6068 915.95 30.4815C917.277 29.3291 917.946 27.8466 917.946 26.072C917.946 24.6961 917.565 23.5306 916.765 22.6217C916.005 21.7583 915.058 21.1059 913.933 20.6628C912.852 20.2369 911.408 19.7833 909.607 19.301L909.604 19.3002C907.41 18.7277 905.66 18.1592 904.349 17.5972C903.121 17.0576 902.051 16.2173 901.139 15.0639C900.296 13.9276 899.85 12.3811 899.85 10.376C899.85 8.64147 900.29 7.12279 901.159 5.80316C902.031 4.47987 903.252 3.4507 904.839 2.71826ZM215.723 0.659999C212.537 0.659999 209.619 1.41629 206.98 2.93336C204.34 4.41888 202.245 6.51624 200.698 9.21536L200.697 9.21709C199.178 11.8914 198.423 14.9059 198.423 18.248C198.423 21.5901 199.178 24.6046 200.697 27.2789L200.699 27.2829C202.246 29.9496 204.341 32.0451 206.978 33.5615L206.982 33.5638C209.621 35.0483 212.539 35.788 215.723 35.788C218.745 35.788 221.5 35.114 223.979 33.7587L223.984 33.7563C226.453 32.3732 228.45 30.5092 229.967 28.1679L229.969 28.1652C231.484 25.7933 232.374 23.1887 232.637 20.3583L232.639 20.3352V16.452H213.639V21.004H226.918C226.505 23.9689 225.341 26.3076 223.448 28.0568C221.441 29.9118 218.88 30.852 215.723 30.852C213.468 30.852 211.442 30.3434 209.636 29.334C207.865 28.2948 206.457 26.8287 205.412 24.9228C204.401 23.0229 203.887 20.8028 203.887 18.248C203.887 15.693 204.401 13.4728 205.412 11.5727C206.459 9.63331 207.866 8.16872 209.635 7.16258L209.637 7.16121C211.444 6.12012 213.468 5.596 215.723 5.596C217.979 5.596 219.933 6.12021 221.604 7.1533L221.61 7.15675C223.281 8.15932 224.56 9.58664 225.448 11.4547L225.583 11.74H231.863L231.597 11.0583C230.313 7.76553 228.247 5.19954 225.402 3.37949C222.593 1.56261 219.362 0.659999 215.723 0.659999ZM468.055 3.80145C470.535 2.37531 473.28 1.66 476.301 1.66C479.356 1.66 482.117 2.37577 484.596 3.80145L484.6 3.80379C487.08 5.19854 489.031 7.1487 490.459 9.66291C491.884 12.1719 492.601 15.0292 492.601 18.248C492.601 21.4668 491.884 24.3241 490.459 26.8331C489.031 29.3477 487.079 31.3147 484.598 32.7417C482.118 34.1357 479.356 34.836 476.301 34.836C473.279 34.836 470.533 34.1361 468.053 32.7417C465.572 31.3147 463.604 29.3474 462.144 26.8321C460.718 24.2899 460.001 21.4324 460.001 18.248C460.001 15.0628 460.719 12.2219 462.143 9.71264C463.604 7.16446 465.572 5.19821 468.051 3.80379L468.055 3.80145ZM646.461 3.80145C648.941 2.37531 651.687 1.66 654.708 1.66C657.762 1.66 660.523 2.37577 663.003 3.80145L663.007 3.80379C665.486 5.19854 667.437 7.1487 668.865 9.66291C670.29 12.1719 671.008 15.0292 671.008 18.248C671.008 21.4668 670.29 24.3241 668.865 26.8331C667.437 29.3473 665.486 31.314 663.005 32.7409C660.526 34.1354 657.763 34.836 654.708 34.836C651.685 34.836 648.939 34.1359 646.458 32.7409C643.978 31.3141 642.01 29.3469 640.55 26.8321C639.125 24.2899 638.408 21.4324 638.408 18.248C638.408 15.0628 639.125 12.2219 640.549 9.71264C642.01 7.16446 643.978 5.19821 646.457 3.80379L646.461 3.80145ZM654.708 0.659999C651.522 0.659999 648.604 1.41616 645.965 2.93296C643.325 4.41849 641.229 6.51599 639.682 9.21536L639.681 9.21709C638.162 11.8914 637.408 14.9059 637.408 18.248C637.408 21.5902 638.162 24.6196 639.68 27.3246L639.683 27.3309C641.231 29.9976 643.325 32.0931 645.963 33.6095L645.967 33.6118C648.606 35.0963 651.523 35.836 654.708 35.836C657.924 35.836 660.857 35.0967 663.497 33.6118L663.501 33.6095C666.139 32.0925 668.219 29.9958 669.734 27.3269C671.254 24.6519 672.008 21.6212 672.008 18.248C672.008 14.8748 671.254 11.8441 669.734 9.16909C668.219 6.49975 666.138 4.41816 663.498 2.93296C660.858 1.4157 657.924 0.659999 654.708 0.659999ZM1001.4 3.80145C1003.88 2.37531 1006.62 1.66 1009.65 1.66C1012.7 1.66 1015.46 2.37577 1017.94 3.80145L1017.94 3.80379C1020.42 5.19854 1022.37 7.1487 1023.8 9.66291C1025.23 12.1719 1025.95 15.0292 1025.95 18.248C1025.95 21.4668 1025.23 24.3241 1023.8 26.8331C1022.37 29.3473 1020.42 31.314 1017.94 32.7409C1015.46 34.1354 1012.7 34.836 1009.65 34.836C1006.62 34.836 1003.88 34.1359 1001.4 32.7409C998.915 31.3141 996.947 29.3469 995.487 26.8321C994.062 24.2899 993.345 21.4324 993.345 18.248C993.345 15.0628 994.062 12.2219 995.487 9.71264C996.948 7.16446 998.915 5.19821 1001.39 3.80379L1001.4 3.80145ZM1009.65 0.659999C1006.46 0.659999 1003.54 1.41616 1000.9 2.93296C998.262 4.41849 996.167 6.51599 994.619 9.21536L994.618 9.21709C993.1 11.8914 992.345 14.9059 992.345 18.248C992.345 21.5902 993.1 24.6196 994.617 27.3246L994.621 27.3309C996.168 29.9976 998.263 32.0931 1000.9 33.6095L1000.9 33.6118C1003.54 35.0963 1006.46 35.836 1009.65 35.836C1012.86 35.836 1015.79 35.0967 1018.43 33.6118L1018.44 33.6095C1021.08 32.0925 1023.16 29.9958 1024.67 27.3269C1026.19 24.6519 1026.95 21.6212 1026.95 18.248C1026.95 14.8748 1026.19 11.8441 1024.67 9.16909C1023.16 6.49975 1021.08 4.41816 1018.44 2.93296C1015.8 1.4157 1012.86 0.659999 1009.65 0.659999ZM166.305 0.996H171.442L188.241 26.4241V0.996H193.609V35.5H188.472L171.673 10.0264V35.5H166.305V0.996ZM167.305 34.5V1.996H170.904L189.241 29.7519V1.996H192.609V34.5H189.011L170.673 6.69359V34.5H167.305ZM344.337 0.996H349.474L366.273 26.4241V0.996H371.641V35.5H366.503L349.705 10.0264V35.5H344.337V0.996ZM345.337 34.5V1.996H348.936L367.273 29.7519V1.996H370.641V34.5H367.042L348.705 6.69358V34.5H345.337ZM402.696 0.996H407.833L424.632 26.4241V0.996H430V35.5H424.863L408.064 10.0264V35.5H402.696V0.996ZM403.696 34.5V1.996H407.295L425.632 29.7519V1.996H429V34.5H425.401L407.064 6.69358V34.5H403.696ZM676.774 0.996H681.911L698.71 26.4241V0.996H704.078V35.5H698.941L682.142 10.0264V35.5H676.774V0.996ZM677.774 34.5V1.996H681.373L699.71 29.7519V1.996H703.078V34.5H699.479L681.142 6.69358V34.5H677.774ZM833.665 0.996H852.665V5.596H839.033V15.78H851.225V20.38H839.033V30.9H852.665V35.5H833.665V0.996ZM834.665 34.5V1.996H851.665V4.596H838.033V16.78H850.225V19.38H838.033V31.9H851.665V34.5H834.665ZM4.53973 1.044H15.8397C19.6891 1.044 22.6947 1.97351 24.7716 3.91323C26.8653 5.83879 27.9077 8.32756 27.9077 11.336C27.9077 14.2491 26.8973 16.7009 24.8752 18.6555C22.8572 20.6051 19.8111 21.532 15.8397 21.532H9.90773V35.5H4.53973V1.044ZM5.53973 34.5V2.044H15.8397C19.5414 2.044 22.2632 2.93804 24.0904 4.64534L24.0933 4.64808C25.9667 6.37034 26.9077 8.58512 26.9077 11.336C26.9077 13.9909 25.9982 16.1791 24.1802 17.9365C22.4223 19.6348 19.6763 20.532 15.8397 20.532H8.90773V34.5H5.53973ZM32.2406 1.044H37.6086V22.712C37.6086 25.6151 38.3111 27.67 39.6203 28.9806C40.9761 30.3057 42.869 30.996 45.3646 30.996C47.8279 30.996 49.6875 30.306 51.0111 28.9824L51.015 28.9786C52.3549 27.6678 53.0726 25.6137 53.0726 22.712V1.044H58.4406V22.664C58.4406 25.5144 57.8671 27.9584 56.6925 29.9719L56.6906 29.9751C55.5223 31.9446 53.9299 33.4216 51.9193 34.3936C49.9549 35.3588 47.7506 35.836 45.3166 35.836C42.8817 35.836 40.6621 35.3584 38.667 34.3942L38.6641 34.3927C36.685 33.42 35.1098 31.9428 33.9426 29.9751L33.9375 29.9666C32.7972 27.9542 32.2406 25.5122 32.2406 22.664V1.044ZM33.2406 22.664V2.044H36.6086V22.712C36.6086 25.7595 37.3455 28.12 38.9151 29.6896L38.919 29.6934C40.507 31.247 42.6774 31.996 45.3646 31.996C48.0202 31.996 50.16 31.2466 51.7163 29.6914C53.3189 28.1223 54.0726 25.761 54.0726 22.712V2.044H57.4406V22.664C57.4406 25.3808 56.8945 27.6403 55.8296 29.4665C54.7583 31.2718 53.3113 32.6101 51.483 33.4938L51.4801 33.4953C49.6689 34.3855 47.6178 34.836 45.3166 34.836C43.016 34.836 40.948 34.3857 39.1033 33.4944C37.3087 32.6118 35.8773 31.2747 34.8052 29.4692C33.7711 27.6423 33.2406 25.3817 33.2406 22.664ZM64.7272 1.044H76.0272C78.6091 1.044 80.8182 1.48482 82.6334 2.39206C84.467 3.29256 85.8581 4.52287 86.7784 6.0909C87.6922 7.6476 88.1432 9.41672 88.1432 11.384C88.1432 13.792 87.4385 15.931 86.0262 17.7813C84.7428 19.5018 82.8703 20.6697 80.454 21.3108L88.9578 35.5H82.5558L74.5878 21.82H70.0952V35.5H64.7272V1.044ZM65.7272 34.5V2.044H76.0272C78.5007 2.044 80.5471 2.46694 82.1876 3.28721L82.1909 3.28883C83.8764 4.11626 85.1087 5.22164 85.916 6.5971C86.7303 7.9844 87.1432 9.57528 87.1432 11.384C87.1432 13.5831 86.5045 15.5074 85.2299 17.1765L85.2264 17.1812C84.0026 18.8229 82.1364 19.9386 79.5693 20.4954L78.888 20.6431L87.1927 34.5H83.1306L75.1626 20.82H69.0952V34.5H65.7272ZM122.006 1.044H127.374V22.712C127.374 25.6151 128.077 27.67 129.386 28.9806C130.742 30.3057 132.635 30.996 135.13 30.996C137.594 30.996 139.453 30.306 140.777 28.9824L140.781 28.9786C142.121 27.6678 142.838 25.6137 142.838 22.712V1.044H148.206V22.664C148.206 25.5144 147.633 27.9584 146.458 29.9719L146.456 29.9751C145.288 31.9446 143.696 33.4216 141.685 34.3936C139.721 35.3588 137.516 35.836 135.082 35.836C132.647 35.836 130.428 35.3584 128.433 34.3942L128.43 34.3927C126.451 33.42 124.875 31.9428 123.708 29.9751L123.703 29.9666C122.563 27.9542 122.006 25.5122 122.006 22.664V1.044ZM123.006 22.664V2.044H126.374V22.712C126.374 25.7595 127.111 28.12 128.681 29.6896L128.685 29.6934C130.273 31.247 132.443 31.996 135.13 31.996C137.786 31.996 139.926 31.2466 141.482 29.6914C143.085 28.1222 143.838 25.761 143.838 22.712V2.044H147.206V22.664C147.206 25.3808 146.66 27.6403 145.595 29.4665C144.524 31.2718 143.077 32.6101 141.249 33.4938L141.246 33.4953C139.434 34.3855 137.383 34.836 135.082 34.836C132.782 34.836 130.714 34.3857 128.869 33.4944C127.074 32.6118 125.643 31.2747 124.571 29.4691C123.537 27.6423 123.006 25.3817 123.006 22.664ZM154.493 1.044H159.861V35.5H154.493V1.044ZM155.493 34.5V2.044H158.861V34.5H155.493ZM332.524 1.044H337.892V35.5H332.524V1.044ZM333.524 34.5V2.044H336.892V34.5H333.524ZM390.883 1.044H396.251V35.5H390.883V1.044ZM391.883 34.5V2.044H395.251V34.5H391.883ZM436.446 1.044H456.358V5.596H441.814V15.876H453.622V20.428H441.814V35.5H436.446V1.044ZM437.446 34.5V2.044H455.358V4.596H440.814V16.876H452.622V19.428H440.814V34.5H437.446ZM498.368 1.044H509.668C512.25 1.044 514.458 1.48475 516.274 2.39184C518.107 3.29236 519.499 4.52275 520.419 6.0909C521.333 7.64759 521.784 9.41671 521.784 11.384C521.784 13.7923 521.079 15.9314 519.666 17.782C518.383 19.5022 516.511 20.6698 514.095 21.3108L522.598 35.5H516.196L508.228 21.82H503.736V35.5H498.368V1.044ZM499.368 34.5V2.044H509.668C512.141 2.044 514.188 2.46694 515.828 3.28721L515.832 3.28883C517.517 4.11626 518.749 5.22164 519.557 6.5971C520.371 7.98441 520.784 9.57529 520.784 11.384C520.784 13.5831 520.145 15.5074 518.87 17.1765L518.867 17.1812C517.643 18.8229 515.777 19.9386 513.21 20.4954L512.529 20.6431L520.833 34.5H516.771L508.803 20.82H502.736V34.5H499.368ZM599.194 1.044H622.85V5.596H613.73V35.5H608.362V5.596H599.194V1.044ZM600.194 4.596V2.044H621.85V4.596H612.73V34.5H609.362V4.596H600.194ZM627.227 1.044H632.595V35.5H627.227V1.044ZM628.227 34.5V2.044H631.595V34.5H628.227ZM748.381 1.044H754.369L762.313 17.3465L770.256 1.044H776.243L765.021 22.4989V35.5H759.653V22.4993L748.381 1.044ZM750.036 2.044H753.744L762.313 19.6295L770.881 2.044H774.591L764.021 22.2531V34.5H760.653V22.2527L750.036 2.044ZM805.632 1.044H829.288V5.596H820.168V35.5H814.8V5.596H805.632V1.044ZM806.632 4.596V2.044H828.288V4.596H819.168V34.5H815.8V4.596H806.632ZM940.587 1.044H960.499V5.596H945.955V15.876H957.763V20.428H945.955V35.5H940.587V1.044ZM941.587 34.5V2.044H959.499V4.596H944.955V16.876H956.763V19.428H944.955V34.5H941.587ZM964.774 1.044H976.074C978.657 1.044 980.866 1.48503 982.682 2.3927C984.515 3.29314 985.905 4.52325 986.825 6.0909C987.739 7.64759 988.19 9.41671 988.19 11.384C988.19 13.7923 987.485 15.9314 986.073 17.782C984.789 19.5022 982.917 20.6698 980.501 21.3108L989.005 35.5H982.603L974.635 21.82H970.142V35.5H964.774V1.044ZM965.774 34.5V2.044H976.074C978.548 2.044 980.594 2.46694 982.234 3.28721L982.238 3.28883C983.923 4.11625 985.156 5.22164 985.963 6.5971C986.777 7.98441 987.19 9.57529 987.19 11.384C987.19 13.5831 986.551 15.5074 985.277 17.1765L985.273 17.1812C984.049 18.8229 982.183 19.9386 979.616 20.4954L978.935 20.6431L987.24 34.5H983.178L975.21 20.82H969.142V34.5H965.774ZM579.049 1.236H584.789L597.2 35.5H591.528L588.84 28.06H574.95L572.262 35.5H566.589L579.049 1.236ZM568.017 34.5L579.749 2.236H584.088L595.774 34.5H592.23L589.542 27.06H574.248L571.56 34.5H568.017ZM250.212 1.284H255.74L267.704 28.016L279.668 1.284H285.148V35.5H279.78V12.5819L269.564 35.5H265.843L255.58 12.5287V35.5H250.212V1.284ZM251.212 34.5V2.284H255.092L267.704 30.464L280.316 2.284H284.148V34.5H280.78V10.232L279.823 10.0284L268.915 34.5H266.492L255.536 9.98003L254.58 10.184V34.5H251.212ZM527.571 1.284H533.099L545.063 28.0161L557.027 1.284H562.507V35.5H557.139V12.5818L546.924 35.5H543.203L532.939 12.5287V35.5H527.571V1.284ZM528.571 34.5V2.284H532.451L545.063 30.464L557.675 2.284H561.507V34.5H558.139V10.232L557.182 10.0284L546.274 34.5H543.851L532.895 9.98003L531.939 10.184V34.5H528.571ZM858.274 1.284H863.802L875.766 28.0161L887.73 1.284H893.21V35.5H887.842V12.5818L877.627 35.5H873.906L863.642 12.5287V35.5H858.274V1.284ZM859.274 34.5V2.284H863.154L875.766 30.464L888.378 2.284H892.21V34.5H888.842V10.232L887.885 10.0284L876.978 34.5H874.554L863.599 9.98003L862.642 10.184V34.5H859.274ZM1031.71 1.284H1037.24L1049.2 28.0159L1061.17 1.284H1066.65V35.5H1061.28V12.5818L1051.06 35.5H1047.34L1037.08 12.5288V35.5H1031.71V1.284ZM1032.71 34.5V2.284H1036.59L1049.2 30.464L1061.82 2.284H1065.65V34.5H1062.28V10.232L1061.32 10.0284L1050.41 34.5H1047.99L1037.04 9.98003L1036.08 10.184V34.5H1032.71ZM476.301 4.452C473.854 4.452 471.653 5.01526 469.713 6.15265C467.773 7.28996 466.238 8.91143 465.109 11.0025L465.108 11.0051C464.007 13.0743 463.465 15.4941 463.465 18.248C463.465 20.9713 464.007 23.3893 465.107 25.488L465.109 25.4935C466.238 27.5846 467.773 29.206 469.713 30.3433L469.716 30.3452C471.685 31.4801 473.884 32.044 476.301 32.044C478.718 32.044 480.902 31.4805 482.84 30.3445C484.813 29.2075 486.349 27.5854 487.447 25.4912C488.579 23.3919 489.137 20.9726 489.137 18.248C489.137 15.4931 488.58 13.0726 487.446 11.0029C486.349 8.91143 484.83 7.28985 482.89 6.15265C480.95 5.01526 478.749 4.452 476.301 4.452ZM470.218 7.01535C471.99 5.97674 474.013 5.452 476.301 5.452C478.59 5.452 480.613 5.97674 482.385 7.01535C484.155 8.05322 485.547 9.53392 486.563 11.472L486.567 11.4804C487.608 13.378 488.137 15.6282 488.137 18.248C488.137 20.8344 487.608 23.0864 486.565 25.0185L486.563 25.024C485.549 26.9599 484.142 28.4403 482.34 29.4788L482.337 29.4807C480.564 30.5199 478.556 31.044 476.301 31.044C474.047 31.044 472.023 30.5201 470.216 29.4795C468.446 28.4413 467.038 26.9598 465.991 25.0209C464.979 23.0882 464.465 20.8353 464.465 18.248C464.465 15.6259 464.98 13.3737 465.991 11.4749C467.038 9.53535 468.447 8.05356 470.218 7.01535ZM654.708 4.452C652.26 4.452 650.059 5.01526 648.119 6.15265C646.179 7.28996 644.644 8.91144 643.516 11.0025L643.514 11.0051C642.413 13.0743 641.872 15.494 641.872 18.248C641.872 20.9713 642.414 23.3893 643.513 25.488L643.516 25.4935C644.644 27.5846 646.179 29.206 648.119 30.3433L648.122 30.3452C650.091 31.4801 652.291 32.044 654.708 32.044C657.125 32.044 659.309 31.4801 661.249 30.3433C663.221 29.2061 664.757 27.5837 665.854 25.4891C666.986 23.3903 667.544 20.9717 667.544 18.248C667.544 15.4937 666.986 13.0736 665.853 11.0042C664.756 8.91211 663.237 7.29009 661.297 6.15265C659.356 5.01526 657.155 4.452 654.708 4.452ZM648.625 7.01535C650.396 5.97674 652.419 5.452 654.708 5.452C656.996 5.452 659.019 5.97674 660.791 7.01535C662.561 8.05322 663.954 9.53392 664.969 11.472L664.973 11.4804C666.014 13.378 666.544 15.6283 666.544 18.248C666.544 20.8344 666.014 23.0864 664.972 25.0185L664.969 25.024C663.955 26.9599 662.548 28.4403 660.746 29.4788L660.743 29.4807C658.97 30.5199 656.963 31.044 654.708 31.044C652.454 31.044 650.43 30.5206 648.625 29.4807C646.854 28.4427 645.445 26.9615 644.398 25.0227C643.386 23.0896 642.872 20.8361 642.872 18.248C642.872 15.6271 643.386 13.3757 644.396 11.4775C645.443 9.53656 646.853 8.05404 648.625 7.01535ZM1009.65 4.452C1007.2 4.452 1005 5.01526 1003.06 6.15265C1001.12 7.28996 999.582 8.91144 998.453 11.0025L998.452 11.0051C997.351 13.0743 996.809 15.494 996.809 18.248C996.809 20.9713 997.351 23.3893 998.45 25.488L998.453 25.4935C999.582 27.5846 1001.12 29.206 1003.06 30.3433L1003.06 30.3452C1005.03 31.4801 1007.23 32.044 1009.65 32.044C1012.06 32.044 1014.25 31.4801 1016.19 30.3433C1018.16 29.2061 1019.69 27.5837 1020.79 25.4891C1021.92 23.3903 1022.48 20.9717 1022.48 18.248C1022.48 15.4937 1021.92 13.0736 1020.79 11.0042C1019.69 8.91211 1018.17 7.29009 1016.23 6.15265C1014.29 5.01526 1012.09 4.452 1009.65 4.452ZM1003.56 7.01535C1005.33 5.97674 1007.36 5.452 1009.65 5.452C1011.93 5.452 1013.96 5.97674 1015.73 7.01535C1017.5 8.05322 1018.89 9.53392 1019.91 11.472L1019.91 11.4804C1020.95 13.378 1021.48 15.6283 1021.48 18.248C1021.48 20.8344 1020.95 23.0864 1019.91 25.0185L1019.91 25.024C1018.89 26.9599 1017.49 28.4403 1015.68 29.4788L1015.68 29.4807C1013.91 30.5199 1011.9 31.044 1009.65 31.044C1007.39 31.044 1005.37 30.5206 1003.56 29.4807C1001.79 28.4427 1000.38 26.9615 999.336 25.0227C998.323 23.0896 997.809 20.8361 997.809 18.248C997.809 15.6271 998.324 13.3757 999.333 11.4775C1000.38 9.53656 1001.79 8.05404 1003.56 7.01535ZM8.90773 4.644H15.8397C18.2692 4.644 20.1847 5.17192 21.4963 6.31508C22.8209 7.46969 23.4437 9.17569 23.4437 11.336C23.4437 13.3908 22.8336 15.0433 21.5536 16.2166C20.2697 17.3934 18.3299 17.932 15.8397 17.932H8.90773V4.644ZM9.90773 16.932V5.644H15.8397C18.1462 5.644 19.7827 6.14808 20.8392 7.06892C21.8825 7.97831 22.4437 9.36831 22.4437 11.336C22.4437 13.1852 21.9019 14.5407 20.8779 15.4794C19.8577 16.4146 18.2135 16.932 15.8397 16.932H9.90773ZM69.0952 4.644H76.0272C78.4893 4.644 80.4135 5.20031 81.6963 6.41033C83.0048 7.61429 83.6312 9.29669 83.6312 11.384C83.6312 13.4449 83.0021 15.1482 81.7088 16.4416L81.7039 16.4464C80.3927 17.7222 78.4689 18.316 76.0272 18.316H69.0952V4.644ZM70.0952 17.316V5.644H76.0272C78.3637 5.644 79.9907 6.17503 81.0119 7.13951L81.0169 7.14417C82.0745 8.11603 82.6312 9.50475 82.6312 11.384C82.6312 13.2257 82.0772 14.6576 81.0041 15.732C79.9473 16.7587 78.3198 17.316 76.0272 17.316H70.0952ZM502.736 4.644H509.668C512.13 4.644 514.054 5.20031 515.337 6.41033C516.645 7.61429 517.272 9.29669 517.272 11.384C517.272 13.4449 516.643 15.1482 515.349 16.4416L515.345 16.4464C514.033 17.7222 512.11 18.316 509.668 18.316H502.736V4.644ZM503.736 17.316V5.644H509.668C512.004 5.644 513.631 6.17503 514.653 7.13951L514.658 7.14417C515.715 8.11603 516.272 9.50475 516.272 11.384C516.272 13.2259 515.718 14.6578 514.645 15.7322C513.588 16.7588 511.96 17.316 509.668 17.316H503.736ZM969.142 4.644H976.074C978.536 4.644 980.46 5.20031 981.743 6.41034C983.052 7.6143 983.678 9.29669 983.678 11.384C983.678 13.4449 983.049 15.1482 981.756 16.4416L981.751 16.4464C980.44 17.7222 978.516 18.316 976.074 18.316H969.142V4.644ZM970.142 17.316V5.644H976.074C978.411 5.644 980.038 6.17503 981.059 7.13951L981.064 7.14417C982.121 8.11603 982.678 9.50475 982.678 11.384C982.678 13.2258 982.124 14.6577 981.051 15.7321C979.994 16.7586 978.366 17.316 976.074 17.316H970.142ZM581.895 5.62838L588.653 24.508H575.137L581.895 5.62838ZM576.557 23.508L581.895 8.59566L587.233 23.508H576.557ZM452.494 74.7188C454.115 73.9851 455.978 73.612 458.094 73.612C461.145 73.612 463.588 74.3735 465.464 75.8563L465.467 75.8587C467.228 77.2286 468.275 79.0017 468.615 81.204H464.804C464.538 79.9595 463.816 78.8769 462.684 77.958C461.389 76.8743 459.698 76.356 457.662 76.356C455.749 76.356 454.141 76.861 452.881 77.9096C451.595 78.947 450.97 80.4114 450.97 82.232C450.97 83.5447 451.335 84.6613 452.102 85.5373L452.11 85.5459C452.864 86.3689 453.772 87.0021 454.829 87.4451L454.838 87.4488L454.847 87.4522C455.89 87.8435 457.33 88.2959 459.159 88.8094L459.161 88.8101C461.356 89.4145 463.105 90.0145 464.416 90.6076L464.425 90.6116C465.685 91.1513 466.77 92.0073 467.682 93.1929L467.686 93.1978C468.554 94.2983 469.018 95.8399 469.018 97.88C469.018 99.4187 468.612 100.866 467.793 102.231C466.983 103.582 465.776 104.69 464.149 105.55C462.538 106.401 460.621 106.836 458.382 106.836C456.235 106.836 454.322 106.463 452.635 105.728C450.979 104.96 449.693 103.926 448.758 102.631C447.92 101.441 447.445 100.092 447.336 98.572H451.032C451.273 100.063 451.945 101.349 453.042 102.415L453.047 102.42L453.052 102.425C454.327 103.593 456.13 104.14 458.382 104.14C460.542 104.14 462.304 103.607 463.605 102.482L463.606 102.482C464.933 101.329 465.602 99.8466 465.602 98.072C465.602 96.6961 465.221 95.5306 464.421 94.6217C463.662 93.7583 462.714 93.1059 461.589 92.6628C460.508 92.2369 459.064 91.7833 457.263 91.301L457.26 91.3002C455.066 90.7277 453.317 90.1593 452.005 89.5973C450.777 89.0577 449.707 88.2174 448.795 87.0639C447.953 85.9277 447.506 84.3811 447.506 82.376C447.506 80.6415 447.946 79.1228 448.816 77.8032C449.688 76.4803 450.908 75.4512 452.494 74.7188ZM458.094 72.612C455.859 72.612 453.851 73.0066 452.08 73.8085L452.077 73.81C450.336 74.6136 448.964 75.7603 447.981 77.2528C446.994 78.7492 446.506 80.4625 446.506 82.376C446.506 84.5275 446.986 86.3071 447.997 87.6664L448.001 87.6722L448.006 87.6778C449.012 88.9527 450.212 89.9023 451.605 90.5138L451.609 90.5156C452.985 91.1052 454.787 91.6885 457.007 92.2677C458.79 92.7452 460.192 93.1873 461.223 93.5932C462.21 93.9821 463.023 94.5457 463.671 95.2823C464.279 95.9734 464.602 96.8879 464.602 98.072C464.602 99.561 464.055 100.766 462.951 101.726C461.884 102.649 460.382 103.14 458.382 103.14C456.286 103.14 454.762 102.632 453.733 101.692C452.702 100.688 452.115 99.4711 451.968 98.0212L451.922 97.572H446.305L446.314 98.0808C446.348 99.9986 446.888 101.713 447.941 103.208L447.945 103.212C448.993 104.666 450.424 105.806 452.22 106.638L452.23 106.642C454.062 107.442 456.116 107.836 458.382 107.836C460.751 107.836 462.835 107.375 464.616 106.434C466.381 105.502 467.734 104.274 468.651 102.745C469.56 101.23 470.018 99.6053 470.018 97.88C470.018 95.6967 469.522 93.9107 468.471 92.5793C467.465 91.2723 466.249 90.3061 464.824 89.6944C463.447 89.0723 461.646 88.457 459.428 87.8462C457.615 87.3374 456.21 86.8951 455.207 86.5192C454.285 86.1312 453.501 85.5829 452.85 84.8741C452.275 84.2147 451.97 83.3487 451.97 82.232C451.97 80.6624 452.496 79.5038 453.512 78.6854L453.518 78.6801C454.562 77.8102 455.929 77.356 457.662 77.356C459.528 77.356 460.973 77.8288 462.045 78.7273L462.051 78.7324C463.154 79.6269 463.745 80.637 463.886 81.766L463.941 82.204H469.734L469.68 81.6549C469.411 78.93 468.208 76.7243 466.082 75.0703C463.991 73.4181 461.314 72.612 458.094 72.612ZM771.199 74.718C772.819 73.9847 774.682 73.612 776.797 73.612C779.848 73.612 782.291 74.3735 784.167 75.8563L784.17 75.8587C785.932 77.2286 786.978 79.0017 787.318 81.204H783.507C783.241 79.9599 782.52 78.8775 781.388 77.9588C780.093 76.8746 778.402 76.356 776.365 76.356C774.452 76.356 772.844 76.8608 771.585 77.9089C770.299 78.9463 769.673 80.4109 769.673 82.232C769.673 83.5447 770.038 84.6613 770.805 85.5373L770.813 85.5459C771.567 86.3689 772.475 87.0021 773.532 87.4451L773.541 87.4488L773.55 87.4522C774.593 87.8435 776.033 88.2959 777.862 88.8094L777.865 88.8101C780.06 89.4145 781.808 90.0145 783.119 90.6076L783.128 90.6116C784.388 91.1513 785.473 92.0073 786.385 93.1929L786.389 93.1978C787.258 94.2983 787.721 95.8399 787.721 97.88C787.721 99.4187 787.315 100.866 786.496 102.231C785.686 103.582 784.479 104.69 782.852 105.55C781.241 106.401 779.324 106.836 777.085 106.836C774.938 106.836 773.026 106.463 771.339 105.728C769.683 104.961 768.396 103.926 767.461 102.631C766.623 101.441 766.148 100.092 766.04 98.572H769.735C769.977 100.063 770.648 101.349 771.745 102.415L771.75 102.42L771.755 102.425C773.03 103.593 774.833 104.14 777.085 104.14C779.245 104.14 781.008 103.607 782.309 102.482C783.636 101.329 784.305 99.8466 784.305 98.072C784.305 96.6961 783.924 95.5306 783.125 94.6217C782.365 93.7583 781.417 93.1059 780.293 92.6628C779.211 92.2369 777.767 91.7833 775.967 91.301L775.963 91.3002C773.769 90.7278 772.02 90.1593 770.708 89.5973C769.48 89.0577 768.41 88.2174 767.498 87.0639C766.656 85.9277 766.209 84.3811 766.209 82.376C766.209 80.6415 766.649 79.1228 767.519 77.8032C768.391 76.4797 769.612 75.4504 771.199 74.718ZM271.602 75.8015C274.082 74.3753 276.827 73.66 279.848 73.66C282.902 73.66 285.664 74.3758 288.143 75.8015L288.147 75.8038C290.627 77.1985 292.578 79.1487 294.006 81.6629C295.43 84.1719 296.148 87.0292 296.148 90.248C296.148 93.4668 295.43 96.3241 294.006 98.8331C292.578 101.348 290.626 103.315 288.145 104.742C285.665 106.136 282.903 106.836 279.848 106.836C276.826 106.836 274.08 106.136 271.6 104.742C269.119 103.315 267.151 101.347 265.691 98.8322C264.265 96.29 263.548 93.4325 263.548 90.248C263.548 87.0628 264.266 84.2219 265.69 81.7126C267.151 79.1645 269.119 77.1982 271.597 75.8038L271.602 75.8015ZM279.848 72.66C276.662 72.66 273.744 73.4164 271.104 74.9338L288.64 74.9338C286 73.416 283.066 72.66 279.848 72.66ZM230.43 72.996H235.567L252.366 98.4241V72.996H257.734V107.5H252.597L235.798 82.0264V107.5H230.43V72.996ZM231.43 106.5V73.996H235.029L253.366 101.752V73.996H256.734V106.5H253.136L234.798 78.6936V106.5H231.43ZM390.321 72.996H409.321V77.596H395.689V87.78H407.881V92.38H395.689V102.9H409.321V107.5H390.321V72.996ZM391.321 106.5V73.996H408.321V76.596H394.689V88.78H406.881V91.38H394.689V103.9H408.321V106.5H391.321ZM501.415 72.996H520.415V77.596H506.783V87.78H518.975V92.38H506.783V102.9H520.415V107.5H501.415V72.996ZM502.415 106.5V73.996H519.415V76.596H505.783V88.78H517.975V91.38H505.783V103.9H519.415V106.5H502.415ZM555.227 72.996H560.364L577.163 98.4241V72.996H582.531V107.5H577.394L560.595 82.0264V107.5H555.227V72.996ZM556.227 106.5V73.996H559.826L578.163 101.752V73.996H581.531V106.5H577.932L559.595 78.6936V106.5H556.227ZM634.165 72.996H639.302L656.101 98.4241V72.996H661.469V107.5H656.331L639.533 82.0264V107.5H634.165V72.996ZM635.165 106.5V73.996H638.764L657.101 101.752V73.996H660.469V106.5H656.87L638.533 78.6936V106.5H635.165ZM712.165 72.996H731.165V77.596H717.533V87.78H729.725V92.38H717.533V102.9H731.165V107.5H712.165V72.996ZM713.165 106.5V73.996H730.165V76.596H716.533V88.78H728.725V91.38H716.533V103.9H730.165V106.5H713.165ZM301.915 73.044H313.215C315.796 73.044 318.005 73.4846 319.82 74.3915C321.654 75.2921 323.045 76.5226 323.966 78.0909C324.88 79.6476 325.331 81.4167 325.331 83.384C325.331 85.7914 324.626 87.9299 323.215 89.7799C321.931 91.5011 320.058 92.6696 317.641 93.3108L326.145 107.5H319.743L311.775 93.82H307.283V107.5H301.915V73.044ZM302.915 106.5V74.044H313.215C315.688 74.044 317.735 74.4669 319.375 75.2872L319.378 75.2888C321.064 76.1162 322.296 77.2216 323.104 78.5971C323.918 79.9844 324.331 81.5753 324.331 83.384C324.331 85.5831 323.692 87.5074 322.417 89.1765L322.414 89.1812C321.19 90.8229 319.324 91.9386 316.757 92.4954L316.076 92.6431L324.38 106.5H320.318L312.35 92.82H306.283V106.5H302.915ZM329.054 73.044H352.71V77.596H343.59V107.5H338.222V77.596H329.054V73.044ZM330.054 76.596V74.044H351.71V76.596H342.59V106.5H339.222V76.596H330.054ZM357.087 73.044H362.455V87.732H378.495V73.044H383.863V107.5H378.495V92.332H362.455V107.5H357.087V73.044ZM358.087 106.5V74.044H361.455V88.732H379.495V74.044H382.863V106.5H379.495V91.332H361.455V106.5H358.087ZM473.382 73.044H497.038V77.596H487.918V107.5H482.55V77.596H473.382V73.044ZM474.382 76.596V74.044H496.038V76.596H486.918V106.5H483.55V76.596H474.382ZM526.024 73.044H537.324C539.906 73.044 542.116 73.485 543.931 74.3925C545.764 75.293 547.155 76.5231 548.075 78.0909C548.989 79.6476 549.44 81.4167 549.44 83.384C549.44 85.7922 548.735 87.9314 547.323 89.7819C546.039 91.5021 544.167 92.6698 541.751 93.3108L550.255 107.5H543.853L535.885 93.82H531.392V107.5H526.024V73.044ZM527.024 106.5V74.044H537.324C539.798 74.044 541.844 74.4669 543.484 75.2872L543.488 75.2888C545.173 76.1162 546.406 77.2216 547.213 78.5971C548.027 79.9844 548.44 81.5753 548.44 83.384C548.44 85.5831 547.801 87.5074 546.527 89.1765L546.523 89.1812C545.299 90.8229 543.433 91.9386 540.866 92.4954L540.185 92.6431L548.49 106.5H544.428L536.46 92.82H530.392V106.5H527.024ZM602.678 94.664V74.044H606.046V94.712C606.046 97.7595 606.783 100.12 608.353 101.69L608.356 101.693C609.945 103.247 612.115 103.996 614.802 103.996C617.458 103.996 619.597 103.247 621.154 101.691C622.756 100.122 623.51 97.761 623.51 94.712V74.044H626.878V94.664C626.878 97.38 626.332 99.639 625.268 101.465C624.197 103.271 622.749 104.61 620.921 105.494L620.918 105.495C619.106 106.386 617.055 106.836 614.754 106.836C612.454 106.836 610.386 106.386 608.542 105.495C606.746 104.612 605.314 103.274 604.242 101.468C603.208 99.641 602.678 97.3809 602.678 94.664ZM667.915 73.044H673.283V107.5H667.915V73.044ZM668.915 106.5V74.044H672.283V106.5H668.915ZM676.864 73.044H682.593L692.755 100.932L702.917 73.044H708.598L695.597 107.5H689.865L676.864 73.044ZM690.557 106.5L678.31 74.044H681.893L692.755 103.852L703.617 74.044H707.152L694.905 106.5H690.557ZM736.774 73.044H748.074C750.656 73.044 752.866 73.485 754.681 74.3925C756.514 75.293 757.905 76.5231 758.825 78.0909C759.739 79.6476 760.19 81.4167 760.19 83.384C760.19 85.7922 759.485 87.9314 758.073 89.7819C756.789 91.5021 754.917 92.6698 752.501 93.3108L761.005 107.5H754.603L746.635 93.82H742.142V107.5H736.774V73.044ZM737.774 106.5V74.044H748.074C750.548 74.044 752.594 74.4669 754.234 75.2872L754.238 75.2888C755.923 76.1162 757.156 77.2216 757.963 78.5971C758.777 79.9844 759.19 81.5753 759.19 83.384C759.19 85.5831 758.551 87.5074 757.277 89.1765L757.273 89.1812C756.049 90.8229 754.183 91.9386 751.616 92.4954L750.935 92.6431L759.24 106.5H755.178L747.21 92.82H741.142V106.5H737.774ZM794.149 73.044H799.517V107.5H794.149V73.044ZM795.149 106.5V74.044H798.517V106.5H795.149ZM803.898 73.044H827.554V77.596H818.434V107.5H813.066V77.596H803.898V73.044ZM804.898 76.596V74.044H826.554V76.596H817.434V106.5H814.066V76.596H804.898ZM828.819 73.044H834.807L842.75 89.3465L850.694 73.044H856.68L845.458 94.4989V107.5H840.09V94.4993L828.819 73.044ZM830.474 74.044H834.182L842.75 91.6295L851.319 74.044H855.029L844.458 94.2531V106.5H841.09V94.2527L830.474 74.044ZM425.064 73.236H430.805L443.215 107.5H437.543L434.855 100.06H420.965L418.277 107.5H412.605L425.064 73.236ZM414.032 106.5L425.765 74.236H430.104L441.789 106.5H438.245L435.557 99.06H420.263L417.575 106.5H414.032ZM273.765 79.0154C275.537 77.9767 277.56 77.452 279.848 77.452C282.137 77.452 284.16 77.9767 285.931 79.0154C287.702 80.0532 289.094 81.5339 290.109 83.472L290.114 83.4804C291.155 85.378 291.684 87.6283 291.684 90.248C291.684 92.8344 291.155 95.0864 290.112 97.0185L290.109 97.024C289.095 98.9599 287.689 100.44 285.887 101.479L285.883 101.481C284.111 102.52 282.103 103.044 279.848 103.044C277.594 103.044 275.57 102.52 273.764 101.48C271.993 100.442 270.585 98.96 269.538 97.0209C268.526 95.0882 268.012 92.8353 268.012 90.248C268.012 87.6259 268.527 85.3737 269.538 83.4749C270.585 81.5353 271.994 80.0536 273.765 79.0154ZM306.283 76.644H313.215C315.677 76.644 317.601 77.2003 318.884 78.4105C320.192 79.6144 320.819 81.2968 320.819 83.384C320.819 85.4449 320.19 87.1482 318.896 88.4416L318.891 88.4464C317.58 89.7222 315.656 90.316 313.215 90.316H306.283V76.644ZM307.283 89.316V77.644H313.215C315.551 77.644 317.178 78.175 318.199 79.1395L318.204 79.1442C319.262 80.116 319.819 81.5048 319.819 83.384C319.819 85.2259 319.265 86.6579 318.191 87.7323C317.134 88.7588 315.507 89.316 313.215 89.316H307.283ZM530.392 76.644H537.324C539.786 76.644 541.711 77.2004 542.993 78.4106C544.302 79.6146 544.928 81.2967 544.928 83.384C544.928 85.4449 544.299 87.1482 543.006 88.4416L543.001 88.4464C541.69 89.7222 539.766 90.316 537.324 90.316H530.392V76.644ZM531.392 89.316V77.644H537.324C539.661 77.644 541.288 78.175 542.309 79.1395L542.314 79.1442C543.371 80.116 543.928 81.5048 543.928 83.384C543.928 85.2259 543.374 86.6578 542.301 87.7322C541.244 88.7587 539.616 89.316 537.324 89.316H531.392ZM741.142 76.644H748.074C750.536 76.644 752.461 77.2004 753.743 78.4106C755.052 79.6146 755.678 81.2967 755.678 83.384C755.678 85.4449 755.049 87.1482 753.756 88.4416L753.751 88.4464C752.44 89.7222 750.516 90.316 748.074 90.316H741.142V76.644ZM742.142 89.316V77.644H748.074C750.411 77.644 752.038 78.175 753.059 79.1395L753.064 79.1442C754.121 80.116 754.678 81.5048 754.678 83.384C754.678 85.2259 754.124 86.6578 753.051 87.7322C751.994 88.7587 750.366 89.316 748.074 89.316H742.142ZM427.91 77.6284L434.668 96.508H421.152L427.91 77.6284ZM433.248 95.508H422.572L427.91 80.5957L433.248 95.508Z" stroke="black" shape-rendering="crispEdges"/>
</g>
<defs>
<filter id="filter0_d_3_4" x="0.0397339" y="0.112" width="1071.11" height="116.224" filterUnits="userSpaceOnUse" color-interpolation-filters="sRGB">
<feFlood flood-opacity="0" result="BackgroundImageFix"/>
<feColorMatrix in="SourceAlpha" type="matrix" values="0 0 0 0 0 0 0 0 0 0 0 0 0 0 0 0 0 0 127 0" result="hardAlpha"/>
<feOffset dy="4"/>
<feGaussianBlur stdDeviation="2"/>
<feComposite in2="hardAlpha" operator="out"/>
<feColorMatrix type="matrix" values="0 0 0 0 0 0 0 0 0 0 0 0 0 0 0 0 0 0 0.25 0"/>
<feBlend mode="normal" in2="BackgroundImageFix" result="effect1_dropShadow_3_4"/>
<feBlend mode="normal" in="SourceGraphic" in2="effect1_dropShadow_3_4" result="shape"/>
</filter>
</defs>
</svg>
